<?xml version="1.0" encoding="UTF-8" standalone="no"?>
<svg
   fill="none"
   stroke="#ffffff"
   stroke-width="2"
   stroke-linecap="round"
   stroke-linejoin="round"
   class="lucide lucide-star-icon lucide-star"
   version="1.1"
   id="svg4"
   width="18"
   height="18"
   xmlns="http://www.w3.org/2000/svg"
   xmlns:svg="http://www.w3.org/2000/svg">
  <defs
     id="defs8" />
  <path
     d="m 8.6106109,1.4046036 a 0.4349524,0.4349524 0 0 1 0.7796318,0 l 1.8957353,3.8398911 a 1.7422716,1.7422716 0 0 0 1.308961,0.9519713 l 4.239555,0.6204226 a 0.4349524,0.4349524 0 0 1 0.241276,0.7418811 l -3.066005,2.9855783 a 1.7422716,1.7422716 0 0 0 -0.501426,1.541209 l 0.723827,4.218218 a 0.4349524,0.4349524 0 0 1 -0.632734,0.459572 L 9.8096022,14.770773 a 1.741451,1.741451 0 0 0 -1.6191716,0 L 4.4014207,16.763347 A 0.4349524,0.4349524 0 0 1 3.7695087,16.303775 L 4.4925145,12.086378 A 1.741451,1.741451 0 0 0 3.9910882,10.544348 L 0.9250841,7.5595904 A 0.4349524,0.4349524 0 0 1 1.1663596,6.816068 L 5.4050938,6.196466 a 1.741451,1.741451 0 0 0 1.310602,-0.9519713 z"
     id="path2"
     style="stroke-width:1.64133" />
</svg>
