<?xml version="1.0" encoding="UTF-8" standalone="no"?>
<svg
   viewBox="0 0 20 20"
   fill="none"
   stroke="currentColor"
   stroke-width="2"
   stroke-linecap="round"
   stroke-linejoin="round"
   xmlns="http://www.w3.org/2000/svg">
  <defs
     id="defs8" />
  <path
     d="m 9.6106111,2.4046036 a 0.43495241,0.43495241 0 0 1 0.7796319,0 l 1.895736,3.8398912 a 1.7422716,1.7422716 0 0 0 1.30896,0.9519713 l 4.239555,0.6204227 a 0.43495241,0.43495241 0 0 1 0.241276,0.7418811 l -3.066005,2.9855781 a 1.7422716,1.7422716 0 0 0 -0.501426,1.541209 l 0.723827,4.218218 a 0.43495241,0.43495241 0 0 1 -0.632733,0.459572 l -3.789831,-1.992574 a 1.741451,1.741451 0 0 0 -1.6191713,0 l -3.78901,1.992574 A 0.43495241,0.43495241 0 0 1 4.7695087,17.303775 L 5.4925145,13.086378 A 1.741451,1.741451 0 0 0 4.9910882,11.544348 L 1.925084,8.5595906 A 0.43495241,0.43495241 0 0 1 2.1663595,7.8160681 L 6.4050939,7.1964661 A 1.741451,1.741451 0 0 0 7.7156958,6.2444948 Z"
     id="path2"
     style="stroke-width:1.64133" />
</svg>
