<?xml version="1.0" encoding="UTF-8" standalone="no"?>
<svg
   fill="none"
   stroke="#ffffff"
   stroke-width="2"
   stroke-linecap="round"
   stroke-linejoin="round"
   class="lucide lucide-star-icon lucide-star"
   version="1.1"
   id="svg4"
   width="20"
   height="20"
   xmlns="http://www.w3.org/2000/svg"
   xmlns:svg="http://www.w3.org/2000/svg">
  <defs
     id="defs8" />
  <path
     d="m 9.5673454,1.5606704 a 0.48328046,0.48328046 0 0 1 0.8662576,0 l 2.106373,4.2665458 a 1.9358574,1.9358574 0 0 0 1.454401,1.0577459 l 4.710617,0.6893585 a 0.48328046,0.48328046 0 0 1 0.268084,0.8243124 l -3.406672,3.31731 a 1.9358574,1.9358574 0 0 0 -0.55714,1.712454 l 0.804252,4.686909 a 0.48328046,0.48328046 0 0 1 -0.703037,0.510636 L 10.899558,16.41197 a 1.9349456,1.9349456 0 0 0 -1.7990796,0 L 4.8904673,18.625942 A 0.48328046,0.48328046 0 0 1 4.1883428,18.115306 L 4.9916826,13.429309 A 1.9349456,1.9349456 0 0 0 4.4345423,11.715943 L 1.027871,8.3995448 A 0.48328046,0.48328046 0 0 1 1.2959548,7.5734088 L 6.0056597,6.8849621 A 1.9349456,1.9349456 0 0 0 7.4618841,5.8272162 Z"
     id="path2"
     style="stroke-width:1.8237" />
</svg>
